<?xml version="1.0"?>
<svg xmlns="http://www.w3.org/2000/svg" id="Layer_3" enable-background="new 0 0 64 64" height="512px" viewBox="0 0 64 64" width="512px"><path d="m58 60v2h-52v-2c0-2.21 1.79-4 4-4h44c2.21 0 4 1.79 4 4z" fill="#838f9b"/><path d="m54 6v50h-44v-50c0-2.21 1.79-4 4-4h36c2.21 0 4 1.79 4 4z" fill="#aab2bd"/><path d="m49 6h-34c-.55 0-1 .45-1 1v11 12 11c0 .55.45 1 1 1h34c.55 0 1-.45 1-1v-11-12-11c0-.55-.45-1-1-1z" fill="#e6e9ed"/><g fill="#fcd770"><path d="m22 10h4v4h-4z"/><path d="m30 11v2c0 .55-.45 1-1 1h-3v-4h3c.55 0 1 .45 1 1z"/><path d="m22 10v4h-3c-.55 0-1-.45-1-1v-2c0-.55.45-1 1-1z"/><path d="m38 22h4v4h-4z"/><path d="m38 22v4h-3c-.55 0-1-.45-1-1v-2c0-.55.45-1 1-1z"/><path d="m46 23v2c0 .55-.45 1-1 1h-3v-4h3c.55 0 1 .45 1 1z"/><path d="m22 34h4v4h-4z"/><path d="m22 34v4h-3c-.55 0-1-.45-1-1v-2c0-.55.45-1 1-1z"/><path d="m30 35v2c0 .55-.45 1-1 1h-3v-4h3c.55 0 1 .45 1 1z"/></g><path d="m14 46h12v6h-12z" fill="#ff826e"/><circle cx="35" cy="49" fill="#69d6f4" r="3"/><circle cx="47" cy="49" fill="#69d6f4" r="3"/><path d="m15 43h34c1.103 0 2-.897 2-2v-34c0-1.103-.897-2-2-2h-34c-1.103 0-2 .897-2 2v34c0 1.103.897 2 2 2zm0-2v-10h34v10zm0-12v-10h34v10zm34-22.001v10.001h-34v-10z"/><path d="m47 45c-2.206 0-4 1.794-4 4s1.794 4 4 4 4-1.794 4-4-1.794-4-4-4zm0 6c-1.103 0-2-.897-2-2s.897-2 2-2 2 .897 2 2-.897 2-2 2z"/><path d="m35 45c-2.206 0-4 1.794-4 4s1.794 4 4 4 4-1.794 4-4-1.794-4-4-4zm0 6c-1.103 0-2-.897-2-2s.897-2 2-2 2 .897 2 2-.897 2-2 2z"/><path d="m19 15h10c1.103 0 2-.897 2-2v-2c0-1.103-.897-2-2-2h-10c-1.103 0-2 .897-2 2v2c0 1.103.897 2 2 2zm4-2v-2h2v2zm6.001 0h-2.001v-2h2zm-10.001-2h2v2h-2z"/><path d="m29 33h-10c-1.103 0-2 .897-2 2v2c0 1.103.897 2 2 2h10c1.103 0 2-.897 2-2v-2c0-1.103-.897-2-2-2zm-4 2v2h-2v-2zm-6 0h2v2h-2zm8 2v-2h2l.001 2z"/><path d="m45 21h-10c-1.103 0-2 .897-2 2v2c0 1.103.897 2 2 2h10c1.103 0 2-.897 2-2v-2c0-1.103-.897-2-2-2zm-4 2v2h-2v-2zm-6 0h2v2h-2zm10 2h-2v-2h2z"/><path d="m27 45h-14v8h14zm-2 6h-10v-4h10z"/><path d="m17 21h2v6h-2z"/><path d="m21 21h2v6h-2z"/><path d="m41 9h2v6h-2z"/><path d="m45 9h2v6h-2z"/><path d="m41 33h2v6h-2z"/><path d="m45 33h2v6h-2z"/><path d="m55 55.101v-49.101c0-2.757-2.243-5-5-5h-36c-2.757 0-5 2.243-5 5v49.101c-2.279.465-4 2.485-4 4.899v3h54v-3c0-2.414-1.721-4.434-4-4.899zm-41-52.101h36c1.654 0 3 1.346 3 3v49h-42v-49c0-1.654 1.346-3 3-3zm43 58h-50v-1c0-1.654 1.346-3 3-3h44c1.654 0 3 1.346 3 3z"/></svg>
