<?xml version="1.0"?>
<svg xmlns="http://www.w3.org/2000/svg" enable-background="new 0 0 140 140" height="512px" viewBox="0 0 140 140" width="512px"><circle cx="70" cy="70" fill="#de594e" r="64"/><path d="m91.1267014 31.6550903c-.7299805-.8499756-1.789978-1.3999634-2.9899902-1.3999634h-44.4500085c-2.1699829 0-3.9299927 1.7599487-3.9299927 3.9299927v71.6300049c0 1.0499878.4199829 1.9899902 1.0899658 2.6999512h-.0099487l.039978.0400391c.0200195.0199585.0499878.0499878.0700073.0700073l25.253109 25.2531128c1.2583009.0737304 2.5233765.1217651 3.800171.1217651 33.8815308 0 61.5958328-26.3330688 63.8361282-59.6466675l-42.6994095-42.708252z" opacity=".1"/><path d="m88.1331177 30.2515869h-44.4446411c-2.171875 0-3.9325562 1.7607422-3.9325562 3.9326172v71.6315918c0 2.171875 1.7606812 3.9326172 3.9325562 3.9326172h44.4446411c2.171936 0 3.9326172-1.7607422 3.9326172-3.9326172v-71.6315918c0-2.171875-1.7606812-3.9326172-3.9326172-3.9326172z" fill="#304551"/><path d="m36.274921 47.242668h59.271694v45.514908h-59.271694z" fill="#ededed" transform="matrix(0 1 -1 0 135.911 4.089)"/><path d="m62.156658 21.360928h7.508215v45.514908h-7.508215z" fill="#dbd8dd" transform="matrix(0 1 -1 0 110.029 -21.792)"/><path d="m59.047504 34.572945h13.726644v1.680814h-13.726644z" fill="#19282f"/><path d="m68.3919983 102.6466064h-4.9623413c-.31604 0-.5722656.2561035-.5722656.5722656v2.7609863c0 .315918.2562256.5722656.5722656.5722656h4.9623413c.31604 0 .5722656-.2563477.5722656-.5722656v-2.7609863c0-.316162-.2562256-.5722656-.5722656-.5722656z" fill="#19282f"/><g fill="#b1b2b6"><path d="m81.800102 42.4034h4.684079v.814623h-4.684079z"/><path d="m81.800102 43.920757h4.684079v.814623h-4.684079z"/><path d="m81.800102 45.438114h4.684079v.814623h-4.684079z"/><path d="m47.8234253 42.6165771c-.68573 0-1.2416382.5559082-1.2416382 1.2414551 0 .685791.5559082 1.2416992 1.2416382 1.2416992.6856689 0 1.2415771-.5559082 1.2415771-1.2416992 0-.6855468-.5559082-1.2414551-1.2415771-1.2414551z"/><path d="m51.4197617 42.6165771c-.68573 0-1.2416382.5559082-1.2416382 1.2414551 0 .685791.5559082 1.2416992 1.2416382 1.2416992.6856689 0 1.2415771-.5559082 1.2415771-1.2416992 0-.6855468-.5559082-1.2414551-1.2415771-1.2414551z"/><path d="m55.016098 42.6165771c-.68573 0-1.2416382.5559082-1.2416382 1.2414551 0 .685791.5559082 1.2416992 1.2416382 1.2416992.6856689 0 1.2415771-.5559082 1.2415771-1.2416992.0000001-.6855468-.5559081-1.2414551-1.2415771-1.2414551z"/></g><path d="m88.6682129 51.8199463c-9.7068481 0-17.5758667 7.8688965-17.5758667 17.5759277 0 4.0603027 1.3903198 7.7883301 3.7026367 10.7641602l-3.7026367 10.7282715 9.2190552-6.027832c2.4855957 1.3459473 5.331665 2.111084 8.3568115 2.111084 9.7069092 0 17.5758667-7.8688965 17.5758667-17.5756836 0-9.7070313-7.8689575-17.5759278-17.5758667-17.5759278z" fill="#f7be56"/><circle cx="88.668" cy="69.396" fill="#fcd462" r="13.463"/><path d="m88.1724701 78.7531433v-1.8590698c-.9295425-.1170578-1.6852188-.3253403-2.2670441-.624855-.5818176-.2995224-1.0844574-.783226-1.5079193-1.4511185-.4234543-.6678848-.6696091-1.4838181-.7384644-2.4477844l1.8694077-.3511581c.1445923.9983978.399353 1.7316971.7642822 2.199913.5233002.6610031 1.1498795 1.0293732 1.8797379 1.1051102v-5.9180527c-.7642899-.1445999-1.5457916-.4406738-2.3445053-.8882294-.5921478-.3304977-1.0483093-.7883835-1.3684845-1.3736496s-.4802628-1.2497101-.4802628-1.9933395c0-1.32201.4682159-2.3927002 1.4046326-3.2120705.6265793-.5508385 1.5561218-.8882256 2.78862-1.0121651v-.8882256h1.0947876v.8882256c1.0810165.1032829 1.9382553.4200134 2.5717239.9501953.8124847.6747742 1.3013458 1.600872 1.4665985 2.7782822l-1.9210434.2891922c-.1101685-.7298584-.3391113-1.2893028-.686821-1.6783333-.3477173-.3890266-.8245392-.6455116-1.4304581-.7694511v5.3603363c.9364243.234108 1.5561142.4165726 1.8590775.5473938.5783768.2547607 1.0500336.5646133 1.4149628.9295425s.6455078.7987137.8417435 1.3013535c.1962357.5026321.2943573 1.0465851.2943573 1.6318512 0 1.2875824-.4096832 2.3617172-1.2290573 3.2223969-.8193665.8606873-1.8797302 1.3220139-3.1810837 1.3839798v1.8797302h-1.0947876zm0-16.2772407c-.7229767.1101685-1.2927475.3993607-1.7093201.867569-.4165726.4682121-.624855 1.0224953-.624855 1.662838 0 .6334686.1772995 1.1636505.5318985 1.5905457.3546066.4269028.9553604.7677307 1.8022766 1.0224915zm1.0947876 12.848278c.7229691-.0895081 1.3202896-.4027939 1.7919388-.9398651.4716568-.5370636.7074814-1.2015076.7074814-1.9933395 0-.6747742-.1669693-1.2170029-.5009155-1.6266937-.3339462-.4096832-1.0001144-.7763367-1.9985046-1.0999527v5.659851z" fill="#f7be56"/></svg>
